<svg xmlns="http://www.w3.org/2000/svg" width="189.222" height="86" viewBox="0 0 189.222 86">
  <g id="Yard_sale_logo" data-name="Yard sale logo" transform="translate(-453.778 -128)">
    <g id="Grupo_1" data-name="Grupo 1" transform="translate(84 1.059)">
      <path id="Trazado_2" data-name="Trazado 2" d="M60-22.167H1.167S-1.973,32.246,1.167,34c5.667,3.167,52.875,3.5,57.333,0s-.833-56.167-.833-56.167" transform="translate(377.5 167.5)" fill="#fff" stroke="#000" stroke-width="6"/>
      <path id="Trazado_1" data-name="Trazado 1" d="M-1.9,0S13.75,1.333,16.625,0,34.751-17.33,34.751-17.33,49.258-1.705,52.3.147,69.833,1,70.833,0s-4.667-27.167-7.609-29.12S9.5-31.167,5.554-29.12-2-2.059-.167.941" transform="translate(372.5 168.5)" fill="#3dd67a" stroke="#000" stroke-width="4"/>
      <g id="Elipse_1" data-name="Elipse 1" transform="translate(385 175)" stroke="#000" stroke-width="1">
        <circle cx="6" cy="6" r="6" stroke="none"/>
        <circle cx="6" cy="6" r="5.5" fill="none"/>
      </g>
      <g id="Elipse_2" data-name="Elipse 2" transform="translate(417 175)" fill="#060606" stroke="#000" stroke-width="1">
        <circle cx="6" cy="6" r="6" stroke="none"/>
        <circle cx="6" cy="6" r="5.5" fill="none"/>
      </g>
      <g id="Unión_1" data-name="Unión 1" transform="translate(401.529 185)">
        <path d="M 11.49970054626465 20.49970054626465 L 0.5000002980232239 20.49970054626465 L 0.5000002980232239 6.000300407409668 C 0.5000002980232239 2.967420339584351 2.967420339584351 0.5000002980232239 6.000300407409668 0.5000002980232239 C 9.032680511474609 0.5000002980232239 11.49970054626465 2.967420339584351 11.49970054626465 6.000300407409668 L 11.49970054626465 20.49970054626465 Z" stroke="none"/>
        <path d="M 10.99970054626465 19.99970054626465 L 10.99970054626465 6.000300407409668 C 10.99970054626465 3.243130207061768 8.756979942321777 1.000000238418579 6.000300407409668 1.000000238418579 C 3.243130207061768 1.000000238418579 1.000000238418579 3.243130207061768 1.000000238418579 6.000300407409668 L 1.000000238418579 19.99970054626465 L 10.99970054626465 19.99970054626465 M 11.99970054626465 20.99970054626465 L 2.731323149873788e-07 20.99970054626465 L 2.731323149873788e-07 6.000300407409668 C 2.731323149873788e-07 2.686500310897827 2.686500310897827 2.731323149873788e-07 6.000300407409668 2.731323149873788e-07 C 9.31410026550293 2.731323149873788e-07 11.99970054626465 2.686500310897827 11.99970054626465 6.000300407409668 L 11.99970054626465 20.99970054626465 Z" stroke="none" fill="#000"/>
      </g>
    </g>
    <text id="YARD" transform="translate(539 168)" fill="#3dd67a" font-size="40" font-family="Quicksand-Bold, Quicksand" font-weight="700"><tspan x="0" y="0">YARD</tspan></text>
    <text id="SALE" transform="translate(544 204)" font-size="40" font-family="Quicksand-Bold, Quicksand" font-weight="700"><tspan x="0" y="0">SALE</tspan></text>
  </g>
</svg>
